# xmcd
#
# Track frame offsets:
#	150
#	18198
#	36074
#	56970
#	77948
#	111122
#	126071
#	143661
#	169422
#	184838
#
# Disc length: 2701 seconds
#
# Revision: 0
# Processed by: cddbd v1.4PL0 Copyright (c) Steve Scherf et al.
# Submitted via: EasyCDDAExtractor 5.0.4.1
#
DISCID=860a8b0a
DTITLE=Glen Eddy Band - Hot Smoke
DYEAR=1997
DGENRE=Blues
TTITLE0=Don't Know Why
TTITLE1=Red Hot Love
TTITLE2=Before You Go
TTITLE3=Crosscut Saw
TTITLE4=Whoa Baby
TTITLE5=Little Bit
TTITLE6=No Fixin
TTITLE7=Tell Me Darlin
TTITLE8=Fannie May
TTITLE9=Must Be Love
EXTD=
EXTT0=
EXTT1=
EXTT2=
EXTT3=
EXTT4=
EXTT5=
EXTT6=
EXTT7=
EXTT8=
EXTT9=
PLAYORDER=
